<svg xmlns="http://www.w3.org/2000/svg" xmlns:xlink="http://www.w3.org/1999/xlink" width="70" zoomAndPan="magnify" viewBox="0 0 52.5 52.499999" height="70" preserveAspectRatio="xMidYMid meet" version="1.0"><defs><clipPath id="4a658e8fe7"><path d="M 0.0742188 0 L 52.003906 0 L 52.003906 52.003906 L 0.0742188 52.003906 Z M 0.0742188 0 " clip-rule="nonzero"/></clipPath></defs><g clip-path="url(#4a658e8fe7)"><path fill="#b5b5b5" d="M 43.863281 0 L 8.785156 0 C 8.214844 0 7.648438 0.0585938 7.085938 0.167969 C 6.527344 0.28125 5.980469 0.445312 5.453125 0.667969 C 4.925781 0.886719 4.425781 1.152344 3.949219 1.472656 C 3.472656 1.789062 3.035156 2.148438 2.628906 2.554688 C 2.226562 2.957031 1.863281 3.398438 1.546875 3.875 C 1.230469 4.347656 0.960938 4.851562 0.742188 5.378906 C 0.523438 5.90625 0.355469 6.453125 0.246094 7.011719 C 0.132812 7.574219 0.0742188 8.140625 0.0742188 8.710938 L 0.0742188 43.792969 C 0.0742188 44.363281 0.132812 44.929688 0.246094 45.488281 C 0.355469 46.050781 0.523438 46.59375 0.742188 47.121094 C 0.960938 47.652344 1.230469 48.152344 1.546875 48.628906 C 1.863281 49.101562 2.226562 49.542969 2.628906 49.945312 C 3.035156 50.351562 3.472656 50.710938 3.949219 51.027344 C 4.425781 51.347656 4.925781 51.613281 5.453125 51.835938 C 5.980469 52.054688 6.527344 52.21875 7.085938 52.332031 C 7.648438 52.441406 8.214844 52.5 8.785156 52.5 L 43.863281 52.5 C 44.4375 52.5 45.003906 52.441406 45.5625 52.332031 C 46.125 52.21875 46.667969 52.054688 47.195312 51.835938 C 47.722656 51.613281 48.226562 51.347656 48.699219 51.027344 C 49.175781 50.710938 49.617188 50.351562 50.019531 49.945312 C 50.425781 49.542969 50.785156 49.101562 51.101562 48.628906 C 51.421875 48.152344 51.6875 47.652344 51.910156 47.121094 C 52.128906 46.59375 52.292969 46.050781 52.40625 45.488281 C 52.515625 44.929688 52.574219 44.363281 52.574219 43.792969 L 52.574219 8.710938 C 52.574219 8.140625 52.519531 7.574219 52.40625 7.011719 C 52.292969 6.453125 52.128906 5.90625 51.910156 5.378906 C 51.691406 4.851562 51.421875 4.347656 51.105469 3.875 C 50.785156 3.398438 50.425781 2.957031 50.019531 2.554688 C 49.617188 2.148438 49.175781 1.789062 48.699219 1.472656 C 48.226562 1.152344 47.722656 0.886719 47.195312 0.667969 C 46.667969 0.445312 46.125 0.28125 45.5625 0.167969 C 45.003906 0.0585938 44.4375 0 43.863281 0 Z M 32.742188 46.023438 C 32 46.242188 31.3125 46.121094 30.6875 45.660156 C 30.203125 45.238281 29.964844 44.699219 29.976562 44.054688 L 29.976562 42.976562 C 29.976562 41.988281 29.992188 40.492188 29.992188 38.777344 C 30.042969 38.277344 29.988281 37.792969 29.832031 37.316406 C 29.671875 36.839844 29.421875 36.417969 29.082031 36.050781 C 28.914062 35.90625 28.800781 35.730469 28.742188 35.519531 C 28.679688 35.308594 28.683594 35.097656 28.746094 34.886719 C 28.8125 34.679688 28.929688 34.503906 29.097656 34.363281 C 29.269531 34.222656 29.460938 34.140625 29.679688 34.117188 C 33.714844 33.660156 37.441406 32.34375 37.441406 25.726562 C 37.457031 24.910156 37.320312 24.117188 37.027344 23.355469 C 36.738281 22.589844 36.316406 21.910156 35.761719 21.308594 C 35.621094 21.152344 35.53125 20.96875 35.492188 20.761719 C 35.453125 20.554688 35.472656 20.351562 35.550781 20.152344 C 35.96875 18.960938 35.984375 17.761719 35.59375 16.558594 C 34.179688 16.878906 32.894531 17.476562 31.742188 18.359375 C 31.460938 18.550781 31.160156 18.597656 30.832031 18.507812 C 29.355469 18.109375 27.855469 17.902344 26.324219 17.894531 C 24.800781 17.898438 23.304688 18.101562 21.835938 18.503906 C 21.507812 18.597656 21.203125 18.546875 20.921875 18.355469 C 19.769531 17.46875 18.484375 16.871094 17.066406 16.558594 C 16.675781 17.761719 16.691406 18.953125 17.113281 20.144531 C 17.191406 20.339844 17.210938 20.542969 17.175781 20.753906 C 17.136719 20.964844 17.046875 21.148438 16.902344 21.304688 C 16.347656 21.902344 15.925781 22.585938 15.636719 23.351562 C 15.34375 24.113281 15.207031 24.902344 15.222656 25.71875 C 15.222656 32.339844 19.140625 33.6875 22.96875 34.132812 C 23.117188 34.148438 23.253906 34.191406 23.378906 34.261719 C 23.507812 34.335938 23.617188 34.429688 23.710938 34.542969 C 23.800781 34.65625 23.867188 34.785156 23.90625 34.925781 C 23.949219 35.066406 23.957031 35.210938 23.941406 35.359375 C 23.898438 35.65625 23.757812 35.898438 23.523438 36.085938 C 23.285156 36.273438 23.015625 36.355469 22.714844 36.328125 C 18.550781 35.847656 13.011719 34.222656 13.011719 25.71875 C 12.988281 23.703125 13.597656 21.902344 14.839844 20.3125 C 14.394531 18.519531 14.523438 16.769531 15.230469 15.066406 C 15.359375 14.742188 15.585938 14.527344 15.917969 14.417969 C 16.261719 14.304688 18.097656 13.902344 21.722656 16.242188 C 24.789062 15.484375 27.855469 15.484375 30.917969 16.242188 C 34.542969 13.898438 36.378906 14.300781 36.71875 14.417969 C 37.050781 14.527344 37.277344 14.742188 37.40625 15.0625 C 38.125 16.765625 38.261719 18.515625 37.8125 20.3125 C 39.050781 21.902344 39.660156 23.703125 39.636719 25.71875 C 39.636719 33.078125 35.5 35.277344 31.679688 36.039062 C 32.035156 36.917969 32.203125 37.828125 32.191406 38.777344 C 32.191406 40.496094 32.179688 41.996094 32.171875 42.992188 L 32.171875 43.851562 C 32.839844 43.621094 33.488281 43.351562 34.125 43.042969 C 34.757812 42.734375 35.371094 42.390625 35.964844 42.011719 C 36.558594 41.632812 37.128906 41.21875 37.675781 40.773438 C 38.21875 40.328125 38.738281 39.851562 39.226562 39.34375 C 39.714844 38.835938 40.171875 38.300781 40.601562 37.742188 C 41.027344 37.179688 41.417969 36.597656 41.777344 35.988281 C 42.136719 35.382812 42.457031 34.757812 42.742188 34.113281 C 43.027344 33.464844 43.273438 32.808594 43.480469 32.132812 C 43.6875 31.460938 43.855469 30.777344 43.980469 30.082031 C 44.109375 29.390625 44.195312 28.691406 44.238281 27.988281 C 44.285156 27.285156 44.289062 26.582031 44.25 25.878906 C 44.210938 25.175781 44.132812 24.476562 44.011719 23.78125 C 43.894531 23.085938 43.734375 22.402344 43.535156 21.726562 C 43.332031 21.050781 43.09375 20.386719 42.816406 19.738281 C 42.539062 19.09375 42.222656 18.460938 41.871094 17.851562 C 41.519531 17.242188 41.132812 16.652344 40.714844 16.085938 C 40.292969 15.523438 39.839844 14.984375 39.355469 14.472656 C 38.871094 13.960938 38.359375 13.476562 37.820312 13.023438 C 37.277344 12.574219 36.710938 12.152344 36.121094 11.769531 C 35.53125 11.382812 34.921875 11.03125 34.292969 10.71875 C 33.660156 10.40625 33.011719 10.128906 32.351562 9.890625 C 31.6875 9.652344 31.011719 9.453125 30.324219 9.296875 C 29.636719 9.136719 28.945312 9.019531 28.246094 8.941406 C 27.542969 8.863281 26.839844 8.828125 26.136719 8.832031 C 25.429688 8.835938 24.730469 8.882812 24.03125 8.972656 C 23.332031 9.058594 22.640625 9.1875 21.953125 9.355469 C 21.269531 9.523438 20.597656 9.734375 19.9375 9.980469 C 19.277344 10.230469 18.636719 10.515625 18.007812 10.835938 C 17.382812 11.160156 16.777344 11.519531 16.195312 11.914062 C 15.609375 12.308594 15.050781 12.734375 14.515625 13.195312 C 13.980469 13.65625 13.476562 14.144531 13 14.664062 C 12.523438 15.183594 12.078125 15.730469 11.667969 16.300781 C 11.253906 16.871094 10.875 17.464844 10.535156 18.082031 C 10.191406 18.695312 9.886719 19.332031 9.617188 19.980469 C 9.347656 20.632812 9.121094 21.300781 8.929688 21.976562 C 8.738281 22.65625 8.589844 23.34375 8.480469 24.039062 C 8.371094 24.734375 8.300781 25.4375 8.273438 26.140625 C 8.246094 26.84375 8.261719 27.546875 8.316406 28.25 C 8.371094 28.953125 8.46875 29.652344 8.605469 30.34375 C 8.742188 31.035156 8.917969 31.714844 9.136719 32.386719 C 9.351562 33.054688 9.609375 33.710938 9.902344 34.351562 C 10.195312 34.992188 10.527344 35.613281 10.894531 36.214844 C 11.261719 36.816406 11.660156 37.394531 12.097656 37.949219 C 12.53125 38.503906 12.996094 39.03125 13.492188 39.53125 C 13.988281 40.03125 14.515625 40.5 15.066406 40.9375 C 15.617188 41.378906 16.195312 41.78125 16.792969 42.152344 C 17.390625 42.523438 18.011719 42.859375 18.648438 43.15625 C 19.289062 43.453125 19.941406 43.714844 20.613281 43.9375 C 20.464844 42.578125 20.40625 41.21875 20.441406 39.851562 C 20.160156 39.878906 19.890625 39.898438 19.628906 39.898438 C 19.03125 39.941406 18.441406 39.890625 17.863281 39.742188 C 17.28125 39.59375 16.738281 39.359375 16.234375 39.035156 C 15.726562 38.714844 15.285156 38.320312 14.910156 37.851562 C 14.53125 37.386719 14.238281 36.875 14.027344 36.3125 C 13.984375 36.171875 13.964844 36.027344 13.980469 35.878906 C 13.992188 35.730469 14.03125 35.589844 14.101562 35.457031 C 14.171875 35.328125 14.261719 35.214844 14.378906 35.121094 C 14.492188 35.023438 14.621094 34.957031 14.761719 34.914062 C 14.90625 34.871094 15.050781 34.859375 15.199219 34.875 C 15.34375 34.890625 15.484375 34.933594 15.613281 35.003906 C 15.742188 35.078125 15.855469 35.171875 15.945312 35.289062 C 16.039062 35.402344 16.105469 35.535156 16.144531 35.675781 C 16.230469 35.945312 17.175781 38.382812 21.304688 37.503906 C 21.449219 37.472656 21.59375 37.46875 21.738281 37.496094 C 21.882812 37.519531 22.015625 37.574219 22.136719 37.652344 C 22.261719 37.734375 22.363281 37.832031 22.449219 37.953125 C 22.53125 38.074219 22.585938 38.207031 22.617188 38.351562 C 22.652344 38.527344 22.644531 38.703125 22.589844 38.875 C 22.617188 38.953125 22.636719 39.035156 22.644531 39.117188 C 22.65625 40.730469 22.671875 43.601562 22.671875 44.0625 C 22.683594 44.710938 22.445312 45.242188 21.953125 45.660156 C 21.554688 45.988281 21.097656 46.144531 20.585938 46.132812 C 20.410156 46.132812 20.234375 46.117188 20.0625 46.085938 C 19.304688 45.839844 18.566406 45.550781 17.84375 45.21875 C 17.125 44.882812 16.425781 44.507812 15.746094 44.09375 C 15.070312 43.679688 14.417969 43.226562 13.792969 42.734375 C 13.171875 42.242188 12.578125 41.714844 12.015625 41.152344 C 11.453125 40.589844 10.925781 39.996094 10.433594 39.371094 C 9.941406 38.75 9.488281 38.097656 9.074219 37.421875 C 8.65625 36.742188 8.28125 36.042969 7.949219 35.320312 C 7.617188 34.601562 7.328125 33.863281 7.082031 33.105469 C 6.835938 32.351562 6.632812 31.582031 6.476562 30.804688 C 6.320312 30.023438 6.210938 29.238281 6.148438 28.445312 C 6.085938 27.652344 6.070312 26.859375 6.101562 26.066406 C 6.128906 25.273438 6.207031 24.480469 6.332031 23.695312 C 6.453125 22.910156 6.621094 22.136719 6.835938 21.371094 C 7.050781 20.605469 7.308594 19.855469 7.613281 19.121094 C 7.917969 18.386719 8.261719 17.671875 8.648438 16.976562 C 9.035156 16.285156 9.460938 15.613281 9.925781 14.972656 C 10.394531 14.328125 10.894531 13.710938 11.433594 13.128906 C 11.972656 12.542969 12.542969 11.992188 13.144531 11.472656 C 13.75 10.957031 14.378906 10.476562 15.039062 10.03125 C 15.699219 9.589844 16.382812 9.1875 17.089844 8.824219 C 17.796875 8.460938 18.523438 8.140625 19.269531 7.863281 C 20.011719 7.585938 20.769531 7.355469 21.542969 7.164062 C 22.316406 6.976562 23.097656 6.835938 23.886719 6.738281 C 24.675781 6.644531 25.464844 6.59375 26.261719 6.59375 C 27.054688 6.589844 27.847656 6.632812 28.636719 6.722656 C 29.425781 6.8125 30.207031 6.949219 30.980469 7.132812 C 31.753906 7.316406 32.515625 7.542969 33.261719 7.816406 C 34.007812 8.089844 34.738281 8.402344 35.445312 8.761719 C 36.15625 9.117188 36.84375 9.515625 37.503906 9.957031 C 38.167969 10.394531 38.800781 10.871094 39.410156 11.382812 C 40.015625 11.898438 40.589844 12.445312 41.132812 13.027344 C 41.675781 13.605469 42.179688 14.21875 42.652344 14.859375 C 43.121094 15.5 43.550781 16.164062 43.945312 16.855469 C 44.335938 17.546875 44.6875 18.261719 44.992188 18.992188 C 45.300781 19.726562 45.566406 20.472656 45.785156 21.238281 C 46.003906 22 46.179688 22.777344 46.308594 23.558594 C 46.4375 24.34375 46.519531 25.132812 46.554688 25.925781 C 46.589844 26.722656 46.578125 27.515625 46.519531 28.308594 C 46.464844 29.101562 46.359375 29.886719 46.207031 30.667969 C 46.058594 31.449219 45.863281 32.214844 45.621094 32.972656 C 45.378906 33.730469 45.097656 34.472656 44.769531 35.195312 C 44.441406 35.917969 44.070312 36.621094 43.660156 37.300781 C 43.25 37.980469 42.800781 38.636719 42.3125 39.261719 C 41.824219 39.890625 41.300781 40.488281 40.742188 41.054688 C 40.183594 41.621094 39.59375 42.148438 38.972656 42.648438 C 38.351562 43.144531 37.707031 43.601562 37.03125 44.019531 C 36.355469 44.441406 35.660156 44.820312 34.941406 45.160156 C 34.21875 45.496094 33.484375 45.792969 32.730469 46.042969 Z M 32.742188 46.023438 " fill-opacity="1" fill-rule="nonzero"/></g></svg>